<svg xmlns="http://www.w3.org/2000/svg" xmlns:svg="http://www.w3.org/2000/svg" id="svg1" width="640" height="640" version="1.1" viewBox="0 0 640 640"><!--!Font Awesome Free 6.7.2 by @fontawesome - https://fontawesome.com License - https://fontawesome.com/license/free Copyright 2025 Fonticons, Inc.--><path id="path1" fill="#fff" d="m 264.14016,286.21023 c -46.25894,0 -83.78977,37.53084 -83.78977,83.78977 0,46.25893 37.53083,83.78978 83.78977,83.78978 h 111.71968 c 46.25894,0 83.78977,-37.53085 83.78977,-83.78978 0,-46.25894 -37.53083,-83.78977 -83.78977,-83.78977 z m 132.66713,45.38613 a 17.456203,17.456203 0 1 1 0,34.91239 17.456203,17.456203 0 1 1 0,-34.91239 z m -45.38612,59.35108 a 17.456203,17.456203 0 1 1 34.91239,0 17.456203,17.456203 0 1 1 -34.91239,0 z m -97.75473,-45.38612 c 0,-5.80419 4.66954,-10.47373 10.47372,-10.47373 5.80418,0 10.47371,4.66954 10.47371,10.47373 v 13.96496 h 13.96497 c 5.80417,0 10.47373,4.66953 10.47373,10.47372 0,5.80419 -4.66954,10.47372 -10.47373,10.47372 h -13.96497 v 13.96496 c 0,5.80419 -4.66953,10.47373 -10.47371,10.47373 -5.80419,0 -10.47372,-4.66954 -10.47372,-10.47373 v -13.96496 h -13.96496 c -5.8042,0 -10.47373,-4.66953 -10.47373,-10.47372 0,-5.8042 4.66953,-10.47373 10.47373,-10.47373 h 13.96496 z" style="stroke-width:.436405"/><path id="path1-5" fill="#fff" d="m 89.226718,138.67812 c -9.066093,0 -16.483806,7.41772 -16.483806,16.48381 v 329.67613 c 0,9.06609 7.417713,16.4838 16.483806,16.4838 H 550.77329 c 9.06608,0 16.4838,-7.41771 16.4838,-16.4838 V 155.16193 c 0,-9.06609 -7.41772,-16.48381 -16.4838,-16.48381 z m -65.935226,16.48381 c 0,-36.36739 29.567828,-65.935223 65.935226,-65.935223 H 550.77329 c 36.36739,0 65.93522,29.567833 65.93522,65.935223 v 329.67613 c 0,36.36739 -29.56783,65.93523 -65.93522,65.93523 H 89.226718 c -36.367398,0 -65.935226,-29.56784 -65.935226,-65.93523 z m 98.902838,65.93523 c 0,-18.20753 14.76011,-32.96759 32.96761,-32.96759 18.20751,0 32.96761,14.76006 32.96761,32.96759 0,18.20752 -14.7601,32.96759 -32.96761,32.96759 -18.2075,0 -32.96761,-14.76007 -32.96761,-32.96759 z m 107.14475,0 c 0,-13.70217 11.02352,-24.72572 24.72569,-24.72572 h 230.77329 c 13.70216,0 24.72571,11.02355 24.72571,24.72572 0,13.70217 -11.02355,24.72572 -24.72571,24.72572 H 254.06477 c -13.70217,0 -24.72569,-11.02355 -24.72569,-24.72572 z" style="stroke-width:1.03024"/></svg>