<svg xmlns="http://www.w3.org/2000/svg" xmlns:svg="http://www.w3.org/2000/svg" id="svg1" version="1.1" viewBox="0 0 512 512"><!--!Font Awesome Free 6.7.2 by @fontawesome - https://fontawesome.com License - https://fontawesome.com/license/free Copyright 2025 Fonticons, Inc.--><path id="path1" fill="#fff" d="m 49.005172,256 a 206.99483,206.99483 0 1 1 413.989658,0 206.99483,206.99483 0 1 1 -413.989658,0 z M 256,281.87436 a 25.874355,25.874355 0 1 1 0,-51.74871 25.874355,25.874355 0 1 1 0,51.74871 z M 178.37694,256 a 77.62306,77.62306 0 1 0 155.24612,0 77.62306,77.62306 0 1 0 -155.24612,0 z m -51.7487,-12.93717 c 0,-28.30008 14.15003,-57.48958 36.54752,-79.88707 22.39749,-22.39749 51.58699,-36.54752 79.88707,-36.54752 7.11544,0 12.93717,-5.82173 12.93717,-12.93718 0,-7.11545 -5.82173,-12.93718 -12.93717,-12.93718 -36.70924,0 -72.12476,18.03119 -98.24169,44.06726 -26.11692,26.03607 -44.06726,61.53245 -44.06726,98.24169 0,7.11544 5.82173,12.93717 12.93718,12.93717 7.11545,0 12.93718,-5.82173 12.93718,-12.93717 z" style="stroke-width:.808574"/></svg>