<svg xmlns="http://www.w3.org/2000/svg" xmlns:xlink="http://www.w3.org/1999/xlink" id="Duckstation_-_Mouse" x="0" y="0" version="1.1" viewBox="0 0 370 500" xml:space="preserve" style="enable-background:new 0 0 370 500"><style type="text/css">.st0{fill:none}.st1{fill:#ccc;stroke:#000;stroke-width:3;stroke-miterlimit:10}.st2{fill:#999}.st3,.st4,.st5{fill:none;stroke:#4d4d4d;stroke-miterlimit:10}.st4,.st5{stroke:#000;stroke-width:4}.st5{stroke-width:2}.st6{fill:#8d8d8d}</style><g id="tela"><rect width="370" height="500" class="st0"/></g><g id="By_Maxihplay"><path id="base" d="M114.7,426.9c-33.6-20.6-53.4-58-52-97.4l7.6-215c0-33.8,27.4-61.2,61.2-61.2h108.2 c33.8,0,61.2,27.4,61.2,61.2l6.4,215.4c1.1,38.6-17.9,75.3-50.5,95.9c-22.2,14.1-48.5,21.7-75.7,21 C157.2,446,134.4,439,114.7,426.9z" class="st1"/><path id="sombra" d="M307.3,329.8l-2.4-81.6c-0.6,12-4.7,83.7-61.2,122c-9.1,6.2-29.3,18.3-57.9,18.5 s-49-11.4-57.9-17.2c-58.4-38-61.8-114-62.2-125.1l-2.9,82.9c-1.3,39.4,18.4,76.8,52,97.4c19.7,12.1,42.6,19.2,66.4,19.8 c27.2,0.7,53.4-6.9,75.7-21C289.4,405,308.4,368.4,307.3,329.8z" class="st2"/><g id="detalhes"><line id="d" x1="286.3" x2="287.7" y1="190" y2="276.5" class="st3"/><line id="c_00000019656054744658015030000010830243787137806253_" x1="84.1" x2="82.7" y1="190" y2="276.5" class="st3"/><line id="b" x1="282.8" x2="286.3" y1="110.6" y2="166.4" class="st3"/><line id="a" x1="87.7" x2="84.1" y1="112.1" y2="166.4" class="st3"/></g><path id="linhas" d="M114.7,426.9c-33.6-20.6-53.4-58-52-97.4l7.6-215c0-33.8,27.4-61.2,61.2-61.2h108.2 c33.8,0,61.2,27.4,61.2,61.2l6.4,215.4c1.1,38.6-17.9,75.3-50.5,95.9c-22.2,14.1-48.5,21.7-75.7,21 C157.2,446,134.4,439,114.7,426.9z" class="st4"/><g id="linhas_2"><path d="M71.4,183.1c0,0,124.5-21.8,227.1,1.9" class="st5"/><line x1="185" x2="185" y1="58.8" y2="174.1" class="st5"/></g><path id="logo" d="M226.6,232.9c-13.7-1.2-28.7-1.9-44.7-1.8c-13.6,0.1-26.5,0.7-38.4,1.8c-0.4,0-2.7-0.1-4.4-1.9 c-1.1-1.1-1.9-2.7-1.9-4.4v-10.3c0-3.5,2.8-6.3,6.3-6.3c12.1-1.4,25.5-2.3,40.3-2.4c15.7-0.1,30.1,0.9,42.9,2.4 c0.4,0,2.7,0.1,4.4,1.9c1.1,1.1,1.9,2.7,1.9,4.4v10.3C232.8,230.2,229.9,232.9,226.6,232.9z" class="st6"/></g></svg>