<svg xmlns="http://www.w3.org/2000/svg" xmlns:svg="http://www.w3.org/2000/svg" id="memory_card_-_PCSX2" data-name="memory card - PCSX2" version="1.1" viewBox="0 0 150 150"><defs id="defs1"><style id="style1">.cls-1,.cls-2,.cls-3{fill:#fff}.cls-2{fill-rule:evenodd}.cls-3{stroke:#fff;stroke-width:9px}</style></defs><g id="by_Maxihplay" data-name="by Maxihplay" transform="rotate(-90,75.554205,74.930845)"><g id="seta"><polygon id="polygon1" points="111.66 83.64 111.66 67.01 119.89 75.72" class="cls-2"/><polygon id="polygon2" points="124.51 75.8 106.66 57.97 106.66 92.03" class="cls-1"/></g><g id="Formato-2"><path id="path2" d="M 145.26,129.28 H 23.78 c -10.53,0 -19.09,-8.56 -19.09,-19.09 V 39.8 c 0,-10.53 8.56,-19.09 19.09,-19.09 h 121.53 l -0.05,108.59 v 0 z M 23.78,33.71 c -3.91,0 -7.09,3.18 -7.09,7.09 v 68.4 c 0,3.91 3.18,7.09 7.09,7.09 H 133.26 L 133.3,33.7 H 23.78 Z" class="cls-1"/></g><path id="etiqueta-2" d="m 59.28,53.8 v 42.4 c 0,2.23 -1.76,4.04 -3.94,4.04 H 37.66 c -2.17,0 -3.94,-1.81 -3.94,-4.04 v 0 -42.4 c 0,-2.23 1.76,-4.04 3.94,-4.04 h 17.68 c 2.17,0 3.94,1.81 3.94,4.04 z" class="cls-3"/></g></svg>