<svg xmlns="http://www.w3.org/2000/svg" xmlns:xlink="http://www.w3.org/1999/xlink" id="Duckstation_-_Negcon_00000104687465272175918400000016919813319004934028_" x="0" y="0" version="1.1" viewBox="0 0 150 150" xml:space="preserve" style="enable-background:new 0 0 150 150"><style type="text/css">.st0{fill:none}.st1,.st2{fill:none;stroke:#000;stroke-width:12;stroke-miterlimit:10}.st2{stroke-linecap:round}</style><g id="tela"><rect id="tela_00000129895939108887223950000017508827257489233583_" width="150" height="150" class="st0"/></g><g id="By_Maxihplay_00000152974811067316581070000007946929605663458202_"><g id="control"><g id="B"><path d="M91.9,87.8h14l20.2,21.1c3.6,2.5,8.5-0.2,8.4-4.6l-3.9-35.4c0-10.3-8.3-18.6-18.6-18.6H91.9V87.8L91.9,87.8z" class="st1"/><line x1="83.7" x2="83.5" y1="40.1" y2="99.1" class="st1"/><polyline points="101.6 46.2 116.7 46.2 126.1 52" class="st2"/></g><g id="A"><path d="M58.1,87.8h-14l-20.2,21.1c-3.6,2.5-8.5-0.2-8.4-4.6l3.9-35.4c0-10.3,8.3-18.6,18.6-18.6h20.1V87.8 L58.1,87.8z" class="st1"/><line x1="66.3" x2="66.5" y1="40.1" y2="99.1" class="st1"/><polyline points="48.1 46.2 33 46.2 23.6 52" class="st2"/></g></g></g></svg>